<svg xmlns="http://www.w3.org/2000/svg" width="1200" height="800" viewBox="0 0 1200 800">
  <!-- Abstract tech background for about section -->
  <defs>
    <!-- Gradients -->
    <linearGradient id="bgGradient" x1="0%" y1="0%" x2="100%" y2="100%">
      <stop offset="0%" stop-color="#0A0A0A" />
      <stop offset="100%" stop-color="#121212" />
    </linearGradient>
    
    <radialGradient id="spotlightGradient" cx="50%" cy="50%" r="50%" fx="50%" fy="50%">
      <stop offset="0%" stop-color="#FFC700" stop-opacity="0.2" />
      <stop offset="100%" stop-color="#FFC700" stop-opacity="0" />
    </radialGradient>
    
    <!-- Filters -->
    <filter id="glow" x="-50%" y="-50%" width="200%" height="200%">
      <feGaussianBlur stdDeviation="5" result="blur" />
      <feComposite in="SourceGraphic" in2="blur" operator="over" />
    </filter>
  </defs>
  
  <!-- Background -->
  <rect width="1200" height="800" fill="url(#bgGradient)" />
  
  <!-- Spotlight effect -->
  <circle cx="600" cy="400" r="300" fill="url(#spotlightGradient)" />
  
  <!-- Timeline path -->
  <path d="M200,200 L200,600 L1000,600" stroke="#FFC700" stroke-width="2" fill="none" opacity="0.3" />
  
  <!-- Timeline nodes -->
  <g>
    <circle cx="200" cy="200" r="10" fill="#FFC700" />
    <circle cx="200" cy="300" r="10" fill="#FFC700" />
    <circle cx="200" cy="400" r="10" fill="#FFC700" />
    <circle cx="200" cy="500" r="10" fill="#FFC700" />
    <circle cx="200" cy="600" r="10" fill="#FFC700" />
    <circle cx="400" cy="600" r="10" fill="#FFC700" />
    <circle cx="600" cy="600" r="10" fill="#FFC700" />
    <circle cx="800" cy="600" r="10" fill="#FFC700" />
    <circle cx="1000" cy="600" r="10" fill="#FFC700" />
  </g>
  
  <!-- Abstract shapes -->
  <g opacity="0.1">
    <rect x="300" y="150" width="100" height="100" fill="#FFC700" />
    <circle cx="500" cy="200" r="50" fill="#FFC700" />
    <polygon points="650,150 700,250 600,250" fill="#FFC700" />
    <rect x="750" y="150" width="100" height="100" rx="20" ry="20" fill="#FFC700" />
    <ellipse cx="950" cy="200" rx="50" ry="30" fill="#FFC700" />
  </g>
  
  <!-- Grid pattern -->
  <g stroke="#333333" stroke-width="0.5" opacity="0.1">
    <!-- Horizontal lines -->
    <line x1="0" y1="100" x2="1200" y2="100" />
    <line x1="0" y1="200" x2="1200" y2="200" />
    <line x1="0" y1="300" x2="1200" y2="300" />
    <line x1="0" y1="400" x2="1200" y2="400" />
    <line x1="0" y1="500" x2="1200" y2="500" />
    <line x1="0" y1="600" x2="1200" y2="600" />
    <line x1="0" y1="700" x2="1200" y2="700" />
    
    <!-- Vertical lines -->
    <line x1="100" y1="0" x2="100" y2="800" />
    <line x1="200" y1="0" x2="200" y2="800" />
    <line x1="300" y1="0" x2="300" y2="800" />
    <line x1="400" y1="0" x2="400" y2="800" />
    <line x1="500" y1="0" x2="500" y2="800" />
    <line x1="600" y1="0" x2="600" y2="800" />
    <line x1="700" y1="0" x2="700" y2="800" />
    <line x1="800" y1="0" x2="800" y2="800" />
    <line x1="900" y1="0" x2="900" y2="800" />
    <line x1="1000" y1="0" x2="1000" y2="800" />
    <line x1="1100" y1="0" x2="1100" y2="800" />
  </g>
  
  <!-- Founder silhouette (abstract) -->
  <g transform="translate(600, 350)">
    <circle cx="0" cy="0" r="80" fill="none" stroke="#FFC700" stroke-width="2" opacity="0.5" />
    <circle cx="0" cy="-30" r="30" fill="none" stroke="#FFC700" stroke-width="2" opacity="0.5" />
    <path d="M-30,0 C-30,40 30,40 30,0" fill="none" stroke="#FFC700" stroke-width="2" opacity="0.5" />
  </g>
  
  <!-- Company values (abstract icons) -->
  <g>
    <!-- Innovation -->
    <g transform="translate(300, 450)">
      <circle cx="0" cy="0" r="30" fill="none" stroke="#FFC700" stroke-width="1" opacity="0.3" />
      <path d="M0,-15 L0,15 M-15,0 L15,0" stroke="#FFC700" stroke-width="1" opacity="0.3" />
    </g>
    
    <!-- Excellence -->
    <g transform="translate(400, 450)">
      <circle cx="0" cy="0" r="30" fill="none" stroke="#FFC700" stroke-width="1" opacity="0.3" />
      <path d="M-15,-15 L15,15 M-15,15 L15,-15" stroke="#FFC700" stroke-width="1" opacity="0.3" />
    </g>
    
    <!-- Integrity -->
    <g transform="translate(500, 450)">
      <circle cx="0" cy="0" r="30" fill="none" stroke="#FFC700" stroke-width="1" opacity="0.3" />
      <path d="M0,-15 L15,15 L-15,15 Z" stroke="#FFC700" stroke-width="1" opacity="0.3" />
    </g>
    
    <!-- Collaboration -->
    <g transform="translate(700, 450)">
      <circle cx="0" cy="0" r="30" fill="none" stroke="#FFC700" stroke-width="1" opacity="0.3" />
      <circle cx="-10" cy="-10" r="8" stroke="#FFC700" stroke-width="1" fill="none" opacity="0.3" />
      <circle cx="10" cy="-10" r="8" stroke="#FFC700" stroke-width="1" fill="none" opacity="0.3" />
      <circle cx="0" cy="10" r="8" stroke="#FFC700" stroke-width="1" fill="none" opacity="0.3" />
    </g>
    
    <!-- Growth -->
    <g transform="translate(800, 450)">
      <circle cx="0" cy="0" r="30" fill="none" stroke="#FFC700" stroke-width="1" opacity="0.3" />
      <path d="M-15,15 L0,-15 L15,15" stroke="#FFC700" stroke-width="1" opacity="0.3" />
    </g>
  </g>
  
  <!-- Particles -->
  <g fill="#FFFFFF">
    <circle cx="100" cy="100" r="1" opacity="0.5" />
    <circle cx="300" cy="150" r="1" opacity="0.3" />
    <circle cx="500" cy="100" r="1" opacity="0.4" />
    <circle cx="700" cy="150" r="1" opacity="0.5" />
    <circle cx="900" cy="100" r="1" opacity="0.3" />
    <circle cx="1100" cy="150" r="1" opacity="0.4" />
    <circle cx="150" cy="300" r="1" opacity="0.5" />
    <circle cx="350" cy="350" r="1" opacity="0.3" />
    <circle cx="550" cy="300" r="1" opacity="0.4" />
    <circle cx="750" cy="350" r="1" opacity="0.5" />
    <circle cx="950" cy="300" r="1" opacity="0.3" />
    <circle cx="1050" cy="350" r="1" opacity="0.4" />
    <circle cx="200" cy="500" r="1" opacity="0.5" />
    <circle cx="400" cy="550" r="1" opacity="0.3" />
    <circle cx="600" cy="500" r="1" opacity="0.4" />
    <circle cx="800" cy="550" r="1" opacity="0.5" />
    <circle cx="1000" cy="500" r="1" opacity="0.3" />
    <circle cx="250" cy="700" r="1" opacity="0.4" />
    <circle cx="450" cy="750" r="1" opacity="0.5" />
    <circle cx="650" cy="700" r="1" opacity="0.3" />
    <circle cx="850" cy="750" r="1" opacity="0.4" />
    <circle cx="1050" cy="700" r="1" opacity="0.5" />
  </g>
</svg>