<svg xmlns="http://www.w3.org/2000/svg" width="1200" height="800" viewBox="0 0 1200 800">
  <!-- Abstract tech background for blog section -->
  <defs>
    <!-- Gradients -->
    <linearGradient id="bgGradient" x1="0%" y1="0%" x2="100%" y2="100%">
      <stop offset="0%" stop-color="#0A0A0A" />
      <stop offset="100%" stop-color="#121212" />
    </linearGradient>
    
    <!-- Filters -->
    <filter id="glow" x="-50%" y="-50%" width="200%" height="200%">
      <feGaussianBlur stdDeviation="5" result="blur" />
      <feComposite in="SourceGraphic" in2="blur" operator="over" />
    </filter>
  </defs>
  
  <!-- Background -->
  <rect width="1200" height="800" fill="url(#bgGradient)" />
  
  <!-- Grid pattern -->
  <g stroke="#333333" stroke-width="0.5" opacity="0.1">
    <!-- Horizontal lines -->
    <line x1="0" y1="100" x2="1200" y2="100" />
    <line x1="0" y1="200" x2="1200" y2="200" />
    <line x1="0" y1="300" x2="1200" y2="300" />
    <line x1="0" y1="400" x2="1200" y2="400" />
    <line x1="0" y1="500" x2="1200" y2="500" />
    <line x1="0" y1="600" x2="1200" y2="600" />
    <line x1="0" y1="700" x2="1200" y2="700" />
    
    <!-- Vertical lines -->
    <line x1="100" y1="0" x2="100" y2="800" />
    <line x1="200" y1="0" x2="200" y2="800" />
    <line x1="300" y1="0" x2="300" y2="800" />
    <line x1="400" y1="0" x2="400" y2="800" />
    <line x1="500" y1="0" x2="500" y2="800" />
    <line x1="600" y1="0" x2="600" y2="800" />
    <line x1="700" y1="0" x2="700" y2="800" />
    <line x1="800" y1="0" x2="800" y2="800" />
    <line x1="900" y1="0" x2="900" y2="800" />
    <line x1="1000" y1="0" x2="1000" y2="800" />
    <line x1="1100" y1="0" x2="1100" y2="800" />
  </g>
  
  <!-- Blog post cards (abstract representation) -->
  <g>
    <!-- Card 1 -->
    <rect x="200" y="200" width="200" height="150" rx="10" ry="10" fill="#121212" stroke="#FFC700" stroke-width="1" opacity="0.8" />
    <line x1="220" y1="230" x2="380" y2="230" stroke="#FFC700" stroke-width="1" opacity="0.5" />
    <line x1="220" y1="250" x2="380" y2="250" stroke="#FFC700" stroke-width="1" opacity="0.3" />
    <line x1="220" y1="270" x2="380" y2="270" stroke="#FFC700" stroke-width="1" opacity="0.3" />
    <line x1="220" y1="290" x2="300" y2="290" stroke="#FFC700" stroke-width="1" opacity="0.3" />
    <circle cx="350" cy="320" r="15" fill="none" stroke="#FFC700" stroke-width="1" opacity="0.5" />
    
    <!-- Card 2 -->
    <rect x="450" y="200" width="200" height="150" rx="10" ry="10" fill="#121212" stroke="#FFC700" stroke-width="1" opacity="0.8" />
    <line x1="470" y1="230" x2="630" y2="230" stroke="#FFC700" stroke-width="1" opacity="0.5" />
    <line x1="470" y1="250" x2="630" y2="250" stroke="#FFC700" stroke-width="1" opacity="0.3" />
    <line x1="470" y1="270" x2="630" y2="270" stroke="#FFC700" stroke-width="1" opacity="0.3" />
    <line x1="470" y1="290" x2="550" y2="290" stroke="#FFC700" stroke-width="1" opacity="0.3" />
    <circle cx="600" cy="320" r="15" fill="none" stroke="#FFC700" stroke-width="1" opacity="0.5" />
    
    <!-- Card 3 -->
    <rect x="700" y="200" width="200" height="150" rx="10" ry="10" fill="#121212" stroke="#FFC700" stroke-width="1" opacity="0.8" />
    <line x1="720" y1="230" x2="880" y2="230" stroke="#FFC700" stroke-width="1" opacity="0.5" />
    <line x1="720" y1="250" x2="880" y2="250" stroke="#FFC700" stroke-width="1" opacity="0.3" />
    <line x1="720" y1="270" x2="880" y2="270" stroke="#FFC700" stroke-width="1" opacity="0.3" />
    <line x1="720" y1="290" x2="800" y2="290" stroke="#FFC700" stroke-width="1" opacity="0.3" />
    <circle cx="850" cy="320" r="15" fill="none" stroke="#FFC700" stroke-width="1" opacity="0.5" />
    
    <!-- Card 4 -->
    <rect x="200" y="400" width="200" height="150" rx="10" ry="10" fill="#121212" stroke="#FFC700" stroke-width="1" opacity="0.8" />
    <line x1="220" y1="430" x2="380" y2="430" stroke="#FFC700" stroke-width="1" opacity="0.5" />
    <line x1="220" y1="450" x2="380" y2="450" stroke="#FFC700" stroke-width="1" opacity="0.3" />
    <line x1="220" y1="470" x2="380" y2="470" stroke="#FFC700" stroke-width="1" opacity="0.3" />
    <line x1="220" y1="490" x2="300" y2="490" stroke="#FFC700" stroke-width="1" opacity="0.3" />
    <circle cx="350" cy="520" r="15" fill="none" stroke="#FFC700" stroke-width="1" opacity="0.5" />
    
    <!-- Card 5 -->
    <rect x="450" y="400" width="200" height="150" rx="10" ry="10" fill="#121212" stroke="#FFC700" stroke-width="1" opacity="0.8" />
    <line x1="470" y1="430" x2="630" y2="430" stroke="#FFC700" stroke-width="1" opacity="0.5" />
    <line x1="470" y1="450" x2="630" y2="450" stroke="#FFC700" stroke-width="1" opacity="0.3" />
    <line x1="470" y1="470" x2="630" y2="470" stroke="#FFC700" stroke-width="1" opacity="0.3" />
    <line x1="470" y1="490" x2="550" y2="490" stroke="#FFC700" stroke-width="1" opacity="0.3" />
    <circle cx="600" cy="520" r="15" fill="none" stroke="#FFC700" stroke-width="1" opacity="0.5" />
    
    <!-- Card 6 -->
    <rect x="700" y="400" width="200" height="150" rx="10" ry="10" fill="#121212" stroke="#FFC700" stroke-width="1" opacity="0.8" />
    <line x1="720" y1="430" x2="880" y2="430" stroke="#FFC700" stroke-width="1" opacity="0.5" />
    <line x1="720" y1="450" x2="880" y2="450" stroke="#FFC700" stroke-width="1" opacity="0.3" />
    <line x1="720" y1="470" x2="880" y2="470" stroke="#FFC700" stroke-width="1" opacity="0.3" />
    <line x1="720" y1="490" x2="800" y2="490" stroke="#FFC700" stroke-width="1" opacity="0.3" />
    <circle cx="850" cy="520" r="15" fill="none" stroke="#FFC700" stroke-width="1" opacity="0.5" />
  </g>
  
  <!-- Search bar (abstract) -->
  <g transform="translate(950, 100)">
    <rect x="0" y="0" width="200" height="40" rx="20" ry="20" fill="none" stroke="#FFC700" stroke-width="1" opacity="0.5" />
    <circle cx="180" cy="20" r="10" fill="none" stroke="#FFC700" stroke-width="1" opacity="0.5" />
    <line x1="175" y1="25" x2="170" y2="30" stroke="#FFC700" stroke-width="1" opacity="0.5" />
  </g>
  
  <!-- Category filters (abstract) -->
  <g transform="translate(950, 170)">
    <rect x="0" y="0" width="80" height="30" rx="15" ry="15" fill="none" stroke="#FFC700" stroke-width="1" opacity="0.5" />
    <rect x="0" y="40" width="100" height="30" rx="15" ry="15" fill="none" stroke="#FFC700" stroke-width="1" opacity="0.5" />
    <rect x="0" y="80" width="120" height="30" rx="15" ry="15" fill="none" stroke="#FFC700" stroke-width="1" opacity="0.5" />
    <rect x="0" y="120" width="90" height="30" rx="15" ry="15" fill="none" stroke="#FFC700" stroke-width="1" opacity="0.5" />
    <rect x="0" y="160" width="110" height="30" rx="15" ry="15" fill="none" stroke="#FFC700" stroke-width="1" opacity="0.5" />
  </g>
  
  <!-- Newsletter signup (abstract) -->
  <g transform="translate(600, 600)">
    <rect x="-200" y="0" width="400" height="100" rx="10" ry="10" fill="#121212" stroke="#FFC700" stroke-width="1" opacity="0.8" />
    <line x1="-150" y1="30" x2="150" y2="30" stroke="#FFC700" stroke-width="1" opacity="0.5" />
    <rect x="-150" y="50" width="200" height="30" rx="5" ry="5" fill="none" stroke="#FFC700" stroke-width="1" opacity="0.3" />
    <rect x="70" y="50" width="80" height="30" rx="5" ry="5" fill="#FFC700" opacity="0.2" stroke="#FFC700" stroke-width="1" />
  </g>
  
  <!-- Particles -->
  <g fill="#FFFFFF">
    <circle cx="100" cy="100" r="1" opacity="0.5" />
    <circle cx="300" cy="150" r="1" opacity="0.3" />
    <circle cx="500" cy="100" r="1" opacity="0.4" />
    <circle cx="700" cy="150" r="1" opacity="0.5" />
    <circle cx="900" cy="100" r="1" opacity="0.3" />
    <circle cx="1100" cy="150" r="1" opacity="0.4" />
    <circle cx="150" cy="300" r="1" opacity="0.5" />
    <circle cx="350" cy="350" r="1" opacity="0.3" />
    <circle cx="550" cy="300" r="1" opacity="0.4" />
    <circle cx="750" cy="350" r="1" opacity="0.5" />
    <circle cx="950" cy="300" r="1" opacity="0.3" />
    <circle cx="1050" cy="350" r="1" opacity="0.4" />
    <circle cx="200" cy="500" r="1" opacity="0.5" />
    <circle cx="400" cy="550" r="1" opacity="0.3" />
    <circle cx="600" cy="500" r="1" opacity="0.4" />
    <circle cx="800" cy="550" r="1" opacity="0.5" />
    <circle cx="1000" cy="500" r="1" opacity="0.3" />
    <circle cx="250" cy="700" r="1" opacity="0.4" />
    <circle cx="450" cy="750" r="1" opacity="0.5" />
    <circle cx="650" cy="700" r="1" opacity="0.3" />
    <circle cx="850" cy="750" r="1" opacity="0.4" />
    <circle cx="1050" cy="700" r="1" opacity="0.5" />
  </g>
</svg>