<svg xmlns="http://www.w3.org/2000/svg" viewBox="0 0 80 80" width="80" height="80">
  <!-- LDF Favicon - Modern, Bold, Tech-forward -->
  <style>
    .primary { fill: #FFC700; }
    .secondary { fill: #FFB800; }
    .white { fill: #FFFFFF; }
    .dark { fill: #121212; }
  </style>
  
  <!-- Background -->
  <rect class="dark" width="80" height="80" rx="16" ry="16"/>
  
  <!-- Lion Icon -->
  <g transform="translate(20, 15)">
    <path class="primary" d="M40 10c-5.5 0-10 4.5-10 10 0 2.5 1 4.8 2.5 6.5-1.5 1.2-2.5 3-2.5 5 0 3.5 2.8 6.3 6.3 6.3h7.5c3.5 0 6.3-2.8 6.3-6.3 0-2-1-3.8-2.5-5 1.5-1.7 2.5-4 2.5-6.5 0-5.5-4.5-10-10-10z" transform="scale(0.8) translate(-20, -5)"/>
    <circle class="white" cx="12" cy="13" r="2"/>
    <circle class="white" cx="28" cy="13" r="2"/>
    <path class="white" d="M20 22c-1.7 0-3 1.3-3 3s1.3 3 3 3 3-1.3 3-3-1.3-3-3-3z"/>
    <path class="secondary" d="M5 10c-1.7 0-3 1.3-3 3s1.3 3 3 3 3-1.3 3-3-1.3-3-3-3zM35 10c-1.7 0-3 1.3-3 3s1.3 3 3 3 3-1.3 3-3-1.3-3-3-3z"/>
  </g>
  
  <!-- Text: LDF -->
  <text x="40" y="65" font-family="'Inter', sans-serif" font-weight="bold" font-size="16" fill="#FFC700" text-anchor="middle">LDF</text>
</svg>