<svg xmlns="http://www.w3.org/2000/svg" viewBox="0 0 200 60" width="200" height="60">
  <!-- LDF Logo - Modern, Bold, Tech-forward -->
  <style>
    .text { font-family: 'Inter', sans-serif; font-weight: bold; }
    .primary { fill: #FFC700; }
    .secondary { fill: #FFB800; }
    .white { fill: #FFFFFF; }
  </style>
  
  <!-- Lion Icon -->
  <g transform="translate(0, 5)">
    <path class="primary" d="M40 10c-5.5 0-10 4.5-10 10 0 2.5 1 4.8 2.5 6.5-1.5 1.2-2.5 3-2.5 5 0 3.5 2.8 6.3 6.3 6.3h7.5c3.5 0 6.3-2.8 6.3-6.3 0-2-1-3.8-2.5-5 1.5-1.7 2.5-4 2.5-6.5 0-5.5-4.5-10-10-10z"/>
    <circle class="white" cx="35" cy="18" r="2"/>
    <circle class="white" cx="45" cy="18" r="2"/>
    <path class="white" d="M40 25c-1.7 0-3 1.3-3 3s1.3 3 3 3 3-1.3 3-3-1.3-3-3-3z"/>
    <path class="secondary" d="M30 15c-1.7 0-3 1.3-3 3s1.3 3 3 3 3-1.3 3-3-1.3-3-3-3zM50 15c-1.7 0-3 1.3-3 3s1.3 3 3 3 3-1.3 3-3-1.3-3-3-3z"/>
  </g>
  
  <!-- Text: Lionize -->
  <text x="60" y="25" class="text white" font-size="18">LIONIZE</text>
  
  <!-- Text: Digital Factory -->
  <text x="60" y="45" class="text primary" font-size="22">DIGITAL FACTORY</text>
</svg>